<svg xmlns="http://www.w3.org/2000/svg" xmlns:xlink="http://www.w3.org/1999/xlink" width="500" zoomAndPan="magnify" viewBox="0 0 375 374.999991" height="500" preserveAspectRatio="xMidYMid meet" version="1.0"><defs><g/><clipPath id="973a758bef"><path d="M 188.285156 163.820312 L 252 163.820312 L 252 224.570312 L 188.285156 224.570312 Z M 188.285156 163.820312 " clip-rule="nonzero"/></clipPath><clipPath id="cff62b3bcc"><path d="M 123 163.820312 L 188.597656 163.820312 L 188.597656 224.570312 L 123 224.570312 Z M 123 163.820312 " clip-rule="nonzero"/></clipPath><clipPath id="5437cc7bc6"><path d="M 166.042969 211 L 208.792969 211 L 208.792969 225 L 166.042969 225 Z M 166.042969 211 " clip-rule="nonzero"/></clipPath><clipPath id="8944eaee78"><path d="M 166.042969 202.648438 L 208.792969 202.648438 L 208.792969 232.648438 L 166.042969 232.648438 Z M 166.042969 202.648438 " clip-rule="nonzero"/></clipPath><clipPath id="cd1e9bd033"><path d="M 166.042969 215 L 208.792969 215 L 208.792969 221 L 166.042969 221 Z M 166.042969 215 " clip-rule="nonzero"/></clipPath></defs><g fill="#242320" fill-opacity="1"><g transform="translate(110.874053, 173.273859)"><g><path d="M 2.171875 -2.0625 L -13.34375 -18.375 L -3.953125 -27.3125 L -2.75 -25.3125 L -9.8125 -18.59375 L -4.6875 -13.203125 L 1.515625 -19.109375 L 3.09375 -17.46875 L -3.109375 -11.5625 L 4.140625 -3.9375 Z M 2.171875 -2.0625 "/></g></g></g><g fill="#242320" fill-opacity="1"><g transform="translate(123.384413, 161.444822)"><g><path d="M 12.9375 -8.78125 L 2.484375 -1.6875 L -10.15625 -20.328125 L -7.90625 -21.84375 L 3.484375 -5.046875 L 11.6875 -10.625 Z M 12.9375 -8.78125 "/></g></g></g><g fill="#242320" fill-opacity="1"><g transform="translate(137.101934, 152.079042)"><g><path d="M 2.734375 -1.234375 L -6.546875 -21.75 L 5.6875 -27.296875 L 6.28125 -25.125 L -3.171875 -20.84375 L -0.109375 -14.09375 L 8.578125 -18.03125 L 9.46875 -16.0625 L 0.78125 -12.125 L 4.28125 -4.390625 L 13.765625 -8.6875 L 15.015625 -6.796875 Z M 2.734375 -1.234375 "/></g></g></g><g fill="#242320" fill-opacity="1"><g transform="translate(153.329223, 144.171053)"><g><path d="M 12.515625 -6.671875 L 15.125 -26.1875 L 19.0625 -27 L 23.6875 -4.96875 L 21.296875 -4.46875 L 17.171875 -24.109375 L 16.953125 -22.265625 L 14.421875 -4.03125 L 11.828125 -3.5 L 2.15625 -19.171875 L 1.203125 -20.765625 L 5.328125 -1.125 L 2.9375 -0.609375 L -1.6875 -22.640625 L 2.265625 -23.484375 Z M 12.515625 -6.671875 "/></g></g></g><g fill="#242320" fill-opacity="1"><g transform="translate(179.333049, 138.628924)"><g><path d="M 13.8125 -3.265625 L 21.296875 -21.46875 L 25.3125 -21.265625 L 24.171875 1.21875 L 21.734375 1.09375 L 22.75 -18.9375 L 22.0625 -17.21875 L 14.96875 -0.234375 L 12.328125 -0.359375 L 6.96875 -17.984375 L 6.453125 -19.75 L 5.4375 0.28125 L 3 0.15625 L 4.140625 -22.328125 L 8.171875 -22.125 Z M 13.8125 -3.265625 "/></g></g></g><g fill="#242320" fill-opacity="1"><g transform="translate(206.546747, 140.774048)"><g><path d="M 6.453125 -19.984375 L 6.734375 -21.53125 L 14.46875 -19.671875 L 13.96875 -18.171875 L 11.65625 -18.734375 L 7.125 0.09375 L 9.46875 0.671875 L 9 2.171875 L 1.5625 0.375 L 1.84375 -1.171875 L 4.46875 -0.546875 L 9 -19.375 Z M 6.453125 -19.984375 "/></g></g></g><g fill="#242320" fill-opacity="1"><g transform="translate(217.588795, 142.863783)"><g><path d="M 2.75 1.203125 L 11.75 -19.4375 L 14.859375 -18.09375 L 17.84375 -1.203125 L 18.671875 4.34375 L 26.28125 -13.109375 L 28.609375 -12.09375 L 19.609375 8.546875 L 16.765625 7.296875 L 13.671875 -10.453125 L 12.859375 -15.703125 L 5.0625 2.203125 Z M 2.75 1.203125 "/></g></g></g><g fill="#242320" fill-opacity="1"><g transform="translate(239.651854, 152.517911)"><g><path d="M 16.859375 12.515625 L 15.3125 11.359375 L 16.03125 9.609375 C 14.957031 9.710938 13.945312 9.65625 13 9.4375 C 11.738281 9.144531 10.5 8.546875 9.28125 7.640625 C 7.800781 6.535156 6.675781 5.304688 5.90625 3.953125 C 5.34375 2.929688 5.003906 1.96875 4.890625 1.0625 C 4.753906 0.0625 4.847656 -1.039062 5.171875 -2.25 C 5.617188 -4 6.519531 -5.789062 7.875 -7.625 C 9.414062 -9.6875 11.03125 -11.234375 12.71875 -12.265625 C 13.9375 -13.015625 15.097656 -13.445312 16.203125 -13.5625 C 17.160156 -13.65625 18.144531 -13.578125 19.15625 -13.328125 C 20.65625 -12.960938 22.117188 -12.25 23.546875 -11.1875 C 24.859375 -10.21875 25.882812 -9.132812 26.625 -7.9375 C 27.125 -7.164062 27.457031 -6.457031 27.625 -5.8125 L 27.71875 -5.34375 C 27.769531 -4.84375 27.722656 -4.1875 27.578125 -3.375 C 27.515625 -2.976562 27.375 -2.5 27.15625 -1.9375 L 24.71875 -2.046875 C 25.007812 -2.785156 25.1875 -3.472656 25.25 -4.109375 C 25.289062 -4.535156 25.285156 -4.882812 25.234375 -5.15625 C 25.078125 -5.738281 24.835938 -6.300781 24.515625 -6.84375 C 23.929688 -7.78125 23.140625 -8.617188 22.140625 -9.359375 C 21.046875 -10.179688 19.945312 -10.734375 18.84375 -11.015625 C 18.0625 -11.210938 17.359375 -11.273438 16.734375 -11.203125 C 15.953125 -11.140625 15.0625 -10.75 14.0625 -10.03125 C 12.769531 -9.113281 11.46875 -7.773438 10.15625 -6.015625 C 8.90625 -4.316406 8.070312 -2.773438 7.65625 -1.390625 C 7.300781 -0.296875 7.207031 0.609375 7.375 1.328125 C 7.507812 1.960938 7.78125 2.597656 8.1875 3.234375 C 8.789062 4.171875 9.628906 5.039062 10.703125 5.84375 C 11.972656 6.78125 13.191406 7.375 14.359375 7.625 C 15.191406 7.800781 16.09375 7.816406 17.0625 7.671875 L 19.921875 3.8125 L 14.453125 -0.25 L 15.78125 -2.046875 L 23.4375 3.640625 Z M 16.859375 12.515625 "/></g></g></g><g fill="#242320" fill-opacity="1"><g transform="translate(258.224357, 167.073034)"><g/></g></g><g clip-path="url(#973a758bef)"><path fill="#ff914d" d="M 241.839844 223.546875 C 241.84375 224 241.480469 224.371094 241.023438 224.375 L 216.59375 224.570312 L 216.585938 224.570312 C 216.136719 224.570312 215.769531 224.207031 215.765625 223.753906 C 215.761719 223.300781 216.125 222.929688 216.582031 222.925781 L 241.011719 222.730469 L 241.019531 222.730469 C 241.46875 222.730469 241.835938 223.09375 241.839844 223.546875 Z M 217.25 217.347656 C 217.359375 217.789062 217.808594 218.058594 218.25 217.945312 L 251.289062 209.664062 C 251.730469 209.554688 252 209.109375 251.886719 208.667969 C 251.792969 208.292969 251.460938 208.042969 251.089844 208.042969 C 251.023438 208.042969 250.957031 208.050781 250.890625 208.070312 L 217.847656 216.351562 C 217.40625 216.460938 217.140625 216.90625 217.25 217.347656 Z M 230.851562 203.527344 C 231.25 203.3125 231.398438 202.8125 231.179688 202.414062 C 231.03125 202.136719 230.75 201.984375 230.457031 201.984375 C 230.324219 201.984375 230.191406 202.015625 230.066406 202.082031 L 215.195312 210.167969 C 214.792969 210.386719 214.648438 210.886719 214.863281 211.285156 C 215.082031 211.683594 215.582031 211.832031 215.980469 211.613281 Z M 209.085938 205.488281 C 209.390625 205.824219 209.910156 205.851562 210.25 205.546875 L 236.945312 181.382812 C 237.28125 181.078125 237.304688 180.558594 237 180.222656 C 236.839844 180.042969 236.617188 179.949219 236.390625 179.949219 C 236.195312 179.949219 235.996094 180.019531 235.839844 180.164062 L 209.144531 204.324219 C 208.808594 204.628906 208.78125 205.152344 209.085938 205.488281 Z M 203.175781 200.265625 C 203.558594 200.507812 204.066406 200.394531 204.3125 200.011719 L 212.351562 187.308594 C 212.597656 186.925781 212.480469 186.417969 212.097656 186.171875 C 211.960938 186.085938 211.808594 186.046875 211.660156 186.046875 C 211.386719 186.046875 211.121094 186.179688 210.964844 186.429688 L 202.921875 199.132812 C 202.679688 199.515625 202.792969 200.023438 203.175781 200.265625 Z M 195.882812 197.386719 C 196.324219 197.507812 196.773438 197.25 196.894531 196.8125 L 205.730469 164.980469 C 205.851562 164.542969 205.597656 164.089844 205.160156 163.96875 C 205.085938 163.949219 205.011719 163.9375 204.9375 163.9375 C 204.578125 163.9375 204.246094 164.175781 204.144531 164.542969 L 195.3125 196.375 C 195.1875 196.8125 195.445312 197.265625 195.882812 197.386719 Z M 187.261719 196.648438 C 187.71875 196.648438 188.085938 196.277344 188.085938 195.824219 L 188.085938 172.8125 C 188.085938 172.359375 187.71875 171.992188 187.261719 171.992188 C 186.808594 171.992188 186.441406 172.359375 186.441406 172.8125 L 186.441406 195.824219 C 186.441406 196.277344 186.808594 196.648438 187.261719 196.648438 Z M 187.261719 196.648438 " fill-opacity="1" fill-rule="nonzero"/></g><g clip-path="url(#cff62b3bcc)"><path fill="#ff914d" d="M 133.15625 223.546875 C 133.152344 224 133.519531 224.371094 133.972656 224.375 L 158.402344 224.570312 L 158.410156 224.570312 C 158.863281 224.570312 159.230469 224.207031 159.234375 223.753906 C 159.238281 223.300781 158.871094 222.929688 158.417969 222.925781 L 133.988281 222.730469 L 133.980469 222.730469 C 133.527344 222.730469 133.160156 223.09375 133.15625 223.546875 Z M 157.746094 217.347656 C 157.636719 217.789062 157.191406 218.058594 156.75 217.945312 L 123.707031 209.664062 C 123.265625 209.554688 123 209.109375 123.109375 208.667969 C 123.203125 208.292969 123.539062 208.042969 123.90625 208.042969 C 123.972656 208.042969 124.039062 208.050781 124.109375 208.070312 L 157.148438 216.351562 C 157.589844 216.460938 157.859375 216.90625 157.746094 217.347656 Z M 144.148438 203.527344 C 143.746094 203.3125 143.601562 202.8125 143.816406 202.414062 C 143.964844 202.136719 144.25 201.984375 144.539062 201.984375 C 144.671875 201.984375 144.808594 202.015625 144.933594 202.082031 L 159.804688 210.167969 C 160.203125 210.386719 160.351562 210.886719 160.132812 211.285156 C 159.917969 211.683594 159.417969 211.832031 159.019531 211.613281 Z M 165.910156 205.488281 C 165.605469 205.824219 165.085938 205.851562 164.75 205.546875 L 138.054688 181.382812 C 137.71875 181.078125 137.691406 180.558594 137.996094 180.222656 C 138.160156 180.042969 138.382812 179.949219 138.605469 179.949219 C 138.804688 179.949219 139 180.019531 139.160156 180.164062 L 165.851562 204.324219 C 166.191406 204.628906 166.214844 205.152344 165.910156 205.488281 Z M 171.820312 200.265625 C 171.4375 200.507812 170.929688 200.394531 170.6875 200.011719 L 162.644531 187.308594 C 162.402344 186.925781 162.515625 186.417969 162.898438 186.171875 C 163.035156 186.085938 163.1875 186.046875 163.339844 186.046875 C 163.609375 186.046875 163.878906 186.179688 164.035156 186.429688 L 172.078125 199.132812 C 172.320312 199.515625 172.207031 200.023438 171.820312 200.265625 Z M 179.113281 197.386719 C 178.675781 197.507812 178.222656 197.25 178.101562 196.8125 L 169.265625 164.980469 C 169.144531 164.542969 169.402344 164.089844 169.839844 163.96875 C 169.914062 163.949219 169.988281 163.9375 170.058594 163.9375 C 170.417969 163.9375 170.75 164.175781 170.851562 164.542969 L 179.6875 196.375 C 179.808594 196.8125 179.550781 197.265625 179.113281 197.386719 Z M 187.734375 196.648438 C 187.28125 196.648438 186.910156 196.277344 186.910156 195.824219 L 186.910156 172.8125 C 186.910156 172.359375 187.28125 171.992188 187.734375 171.992188 C 188.1875 171.992188 188.558594 172.359375 188.558594 172.8125 L 188.558594 195.824219 C 188.558594 196.277344 188.1875 196.648438 187.734375 196.648438 Z M 187.734375 196.648438 " fill-opacity="1" fill-rule="nonzero"/></g><g clip-path="url(#5437cc7bc6)"><path fill="#ff914d" d="M 208.941406 217.628906 C 208.941406 217.632812 208.941406 217.636719 208.941406 217.640625 C 208.941406 217.640625 208.941406 217.644531 208.941406 217.648438 C 208.941406 217.648438 208.941406 217.648438 208.941406 217.652344 C 208.941406 217.65625 208.941406 217.660156 208.941406 217.664062 C 208.941406 217.660156 208.941406 217.652344 208.941406 217.648438 C 208.941406 217.640625 208.941406 217.632812 208.941406 217.628906 M 168.398438 217.648438 C 168.398438 218.601562 168.558594 219.527344 168.867188 220.421875 C 169.261719 220.691406 169.691406 220.976562 170.160156 221.257812 C 171.285156 221.941406 172.613281 222.628906 174.078125 223.152344 C 175.542969 223.675781 177.148438 224.035156 178.820312 224.039062 C 180.492188 224.039062 182.234375 223.667969 183.890625 222.75 C 185.550781 221.832031 187.109375 220.378906 188.476562 218.289062 L 188.503906 218.246094 C 189.535156 216.515625 190.6875 215.433594 191.894531 214.757812 C 192.5 214.421875 193.121094 214.1875 193.761719 214.035156 C 194.402344 213.882812 195.058594 213.8125 195.726562 213.8125 C 197.066406 213.8125 198.449219 214.09375 199.769531 214.535156 C 201.753906 215.195312 203.585938 216.207031 204.90625 217.050781 C 205.566406 217.472656 206.101562 217.855469 206.46875 218.125 C 206.503906 218.152344 206.539062 218.179688 206.570312 218.203125 C 206.582031 218.019531 206.589844 217.832031 206.589844 217.644531 C 206.589844 216.765625 206.453125 215.910156 206.1875 215.082031 C 205.707031 214.773438 205.164062 214.441406 204.570312 214.113281 C 203.390625 213.460938 202.011719 212.804688 200.515625 212.304688 C 199.015625 211.804688 197.394531 211.460938 195.726562 211.460938 C 194.894531 211.460938 194.050781 211.546875 193.214844 211.746094 C 191.960938 212.046875 190.71875 212.601562 189.578125 213.472656 C 188.4375 214.339844 187.398438 215.511719 186.5 217.019531 C 185.304688 218.832031 184.035156 219.980469 182.753906 220.691406 C 182.109375 221.046875 181.460938 221.292969 180.804688 221.453125 C 180.148438 221.613281 179.484375 221.6875 178.820312 221.6875 C 177.488281 221.6875 176.144531 221.394531 174.871094 220.9375 C 172.960938 220.257812 171.226562 219.210938 169.984375 218.335938 C 169.363281 217.898438 168.867188 217.503906 168.527344 217.222656 C 168.488281 217.1875 168.449219 217.15625 168.414062 217.128906 C 168.402344 217.300781 168.398438 217.472656 168.398438 217.648438 M 166.046875 217.644531 C 166.046875 217.648438 166.046875 217.648438 166.046875 217.648438 C 166.046875 217.644531 166.046875 217.644531 166.046875 217.644531 " fill-opacity="1" fill-rule="nonzero"/></g><g clip-path="url(#8944eaee78)"><path fill="#ff914d" d="M 187.496094 202.683594 L 187.496094 205.03125 C 190.183594 205.03125 192.742188 205.40625 195.058594 206.070312 C 198.535156 207.070312 201.457031 208.738281 203.46875 210.765625 C 204.476562 211.78125 205.257812 212.882812 205.785156 214.035156 C 205.941406 214.378906 206.078125 214.726562 206.191406 215.082031 C 207.613281 215.992188 208.488281 216.71875 208.519531 216.742188 C 208.792969 216.96875 208.9375 217.296875 208.941406 217.628906 C 208.941406 215.496094 208.296875 213.464844 207.171875 211.660156 C 206.324219 210.300781 205.210938 209.0625 203.886719 207.96875 C 201.894531 206.328125 199.429688 205.011719 196.648438 204.101562 C 193.867188 203.1875 190.765625 202.683594 187.496094 202.683594 M 166.046875 217.644531 C 166.046875 217.355469 166.152344 217.070312 166.363281 216.84375 C 166.804688 216.371094 167.546875 216.34375 168.023438 216.785156 L 168.027344 216.789062 L 168.050781 216.808594 C 168.070312 216.828125 168.101562 216.855469 168.144531 216.894531 C 168.207031 216.953125 168.300781 217.03125 168.414062 217.128906 C 168.507812 215.648438 168.984375 214.234375 169.8125 212.898438 C 170.507812 211.785156 171.445312 210.734375 172.597656 209.78125 C 174.328125 208.355469 176.535156 207.164062 179.070312 206.335938 C 181.605469 205.503906 184.46875 205.03125 187.496094 205.03125 L 187.496094 202.679688 C 184.585938 202.679688 181.8125 203.082031 179.277344 203.8125 C 175.476562 204.90625 172.210938 206.734375 169.851562 209.109375 C 168.671875 210.292969 167.722656 211.621094 167.066406 213.058594 C 166.40625 214.492188 166.046875 216.039062 166.046875 217.644531 M 166.046875 217.652344 C 166.046875 219.789062 166.691406 221.824219 167.816406 223.632812 C 168.664062 224.996094 169.777344 226.230469 171.105469 227.324219 C 173.09375 228.964844 175.558594 230.28125 178.339844 231.191406 C 181.121094 232.105469 184.222656 232.609375 187.496094 232.609375 C 190.402344 232.609375 193.175781 232.210938 195.710938 231.480469 C 199.511719 230.386719 202.777344 228.558594 205.136719 226.183594 C 206.316406 224.996094 207.265625 223.671875 207.925781 222.234375 C 208.578125 220.804688 208.941406 219.261719 208.941406 217.664062 C 208.9375 217.921875 208.847656 218.183594 208.671875 218.398438 C 208.257812 218.898438 207.515625 218.964844 207.015625 218.550781 L 207.011719 218.546875 L 206.988281 218.527344 C 206.964844 218.511719 206.929688 218.480469 206.882812 218.445312 C 206.808594 218.386719 206.703125 218.304688 206.570312 218.203125 C 206.472656 219.671875 205.996094 221.070312 205.175781 222.394531 C 204.480469 223.507812 203.542969 224.558594 202.390625 225.511719 C 200.660156 226.9375 198.453125 228.128906 195.917969 228.957031 C 193.382812 229.789062 190.519531 230.261719 187.496094 230.261719 C 184.804688 230.261719 182.246094 229.886719 179.929688 229.222656 C 176.453125 228.222656 173.53125 226.554688 171.519531 224.527344 C 170.511719 223.511719 169.730469 222.410156 169.203125 221.257812 C 169.078125 220.980469 168.964844 220.703125 168.867188 220.421875 C 167.367188 219.390625 166.453125 218.535156 166.421875 218.507812 C 166.171875 218.273438 166.046875 217.960938 166.046875 217.648438 C 166.046875 217.648438 166.046875 217.652344 166.046875 217.652344 " fill-opacity="1" fill-rule="nonzero"/></g><g clip-path="url(#cd1e9bd033)"><path fill="#ff914d" d="M 206.191406 215.082031 C 206.453125 215.914062 206.589844 216.769531 206.589844 217.648438 C 206.589844 217.832031 206.585938 218.019531 206.570312 218.203125 C 206.703125 218.304688 206.808594 218.386719 206.882812 218.445312 C 206.929688 218.480469 206.964844 218.511719 206.988281 218.527344 L 207.011719 218.546875 L 207.015625 218.550781 C 207.515625 218.964844 208.257812 218.898438 208.671875 218.398438 C 208.847656 218.183594 208.9375 217.921875 208.941406 217.664062 C 208.941406 217.660156 208.941406 217.65625 208.941406 217.652344 C 208.941406 217.648438 208.941406 217.648438 208.941406 217.644531 C 208.941406 217.644531 208.941406 217.640625 208.941406 217.640625 C 208.941406 217.636719 208.941406 217.632812 208.941406 217.628906 C 208.9375 217.296875 208.792969 216.96875 208.519531 216.742188 C 208.488281 216.71875 207.613281 215.992188 206.191406 215.082031 M 166.046875 217.648438 C 166.046875 217.960938 166.171875 218.277344 166.421875 218.507812 C 166.453125 218.535156 167.367188 219.390625 168.867188 220.421875 C 168.558594 219.527344 168.398438 218.601562 168.398438 217.648438 C 168.398438 217.472656 168.402344 217.300781 168.414062 217.128906 C 168.300781 217.03125 168.207031 216.953125 168.144531 216.894531 C 168.101562 216.855469 168.070312 216.828125 168.050781 216.808594 L 168.027344 216.789062 L 168.023438 216.785156 C 167.546875 216.34375 166.804688 216.371094 166.363281 216.84375 C 166.152344 217.070312 166.046875 217.355469 166.046875 217.644531 C 166.046875 217.644531 166.046875 217.644531 166.046875 217.648438 " fill-opacity="1" fill-rule="nonzero"/></g><g fill="#ff914d" fill-opacity="1"><g transform="translate(120.410828, 260.976487)"><g><path d="M 0.96875 0 C 0.925781 0 0.890625 -0.0078125 0.859375 -0.03125 C 0.828125 -0.0625 0.8125 -0.101562 0.8125 -0.15625 L 0.8125 -6.84375 C 0.8125 -6.894531 0.828125 -6.929688 0.859375 -6.953125 C 0.890625 -6.984375 0.925781 -7 0.96875 -7 L 1.625 -7 C 1.675781 -7 1.710938 -6.984375 1.734375 -6.953125 C 1.765625 -6.929688 1.78125 -6.894531 1.78125 -6.84375 L 1.78125 -3.734375 C 1.78125 -3.710938 1.785156 -3.695312 1.796875 -3.6875 C 1.804688 -3.6875 1.820312 -3.691406 1.84375 -3.703125 L 4.671875 -6.921875 C 4.710938 -6.972656 4.769531 -7 4.84375 -7 L 5.59375 -7 C 5.675781 -7 5.71875 -6.972656 5.71875 -6.921875 C 5.71875 -6.890625 5.707031 -6.851562 5.6875 -6.8125 L 3.375 -4.0625 C 3.351562 -4.039062 3.347656 -4.019531 3.359375 -4 L 5.875 -0.1875 C 5.894531 -0.15625 5.90625 -0.125 5.90625 -0.09375 C 5.90625 -0.03125 5.859375 0 5.765625 0 L 5.015625 0 C 4.941406 0 4.882812 -0.03125 4.84375 -0.09375 L 2.703125 -3.3125 C 2.671875 -3.351562 2.644531 -3.359375 2.625 -3.328125 L 1.796875 -2.40625 C 1.785156 -2.382812 1.78125 -2.363281 1.78125 -2.34375 L 1.78125 -0.15625 C 1.78125 -0.101562 1.765625 -0.0625 1.734375 -0.03125 C 1.710938 -0.0078125 1.675781 0 1.625 0 Z M 0.96875 0 "/></g></g></g><g fill="#ff914d" fill-opacity="1"><g transform="translate(128.56841, 260.976487)"><g><path d="M 5.109375 0 C 5.023438 0 4.96875 -0.0390625 4.9375 -0.125 L 4.59375 -1.234375 C 4.570312 -1.265625 4.554688 -1.28125 4.546875 -1.28125 L 1.75 -1.28125 C 1.726562 -1.28125 1.710938 -1.265625 1.703125 -1.234375 L 1.34375 -0.125 C 1.320312 -0.0390625 1.269531 0 1.1875 0 L 0.46875 0 C 0.351562 0 0.3125 -0.0546875 0.34375 -0.171875 L 2.515625 -6.875 C 2.535156 -6.957031 2.59375 -7 2.6875 -7 L 3.59375 -7 C 3.6875 -7 3.742188 -6.957031 3.765625 -6.875 L 5.953125 -0.171875 C 5.953125 -0.160156 5.953125 -0.140625 5.953125 -0.109375 C 5.953125 -0.0351562 5.910156 0 5.828125 0 Z M 1.953125 -2.09375 C 1.953125 -2.0625 1.96875 -2.046875 2 -2.046875 L 4.296875 -2.046875 C 4.328125 -2.046875 4.335938 -2.0625 4.328125 -2.09375 L 3.171875 -5.828125 C 3.160156 -5.859375 3.148438 -5.875 3.140625 -5.875 C 3.128906 -5.875 3.117188 -5.859375 3.109375 -5.828125 Z M 1.953125 -2.09375 "/></g></g></g><g fill="#ff914d" fill-opacity="1"><g transform="translate(136.865931, 260.976487)"><g><path d="M 5.453125 -6.3125 C 5.453125 -6.269531 5.4375 -6.234375 5.40625 -6.203125 C 5.382812 -6.179688 5.351562 -6.171875 5.3125 -6.171875 L 1.828125 -6.171875 C 1.796875 -6.171875 1.78125 -6.15625 1.78125 -6.125 L 1.78125 -3.984375 C 1.78125 -3.953125 1.796875 -3.9375 1.828125 -3.9375 L 4.203125 -3.9375 C 4.242188 -3.9375 4.273438 -3.921875 4.296875 -3.890625 C 4.328125 -3.867188 4.34375 -3.835938 4.34375 -3.796875 L 4.34375 -3.265625 C 4.34375 -3.210938 4.328125 -3.171875 4.296875 -3.140625 C 4.273438 -3.117188 4.242188 -3.109375 4.203125 -3.109375 L 1.828125 -3.109375 C 1.796875 -3.109375 1.78125 -3.09375 1.78125 -3.0625 L 1.78125 -0.15625 C 1.78125 -0.101562 1.765625 -0.0625 1.734375 -0.03125 C 1.710938 -0.0078125 1.675781 0 1.625 0 L 0.96875 0 C 0.925781 0 0.890625 -0.0078125 0.859375 -0.03125 C 0.828125 -0.0625 0.8125 -0.101562 0.8125 -0.15625 L 0.8125 -6.84375 C 0.8125 -6.894531 0.828125 -6.929688 0.859375 -6.953125 C 0.890625 -6.984375 0.925781 -7 0.96875 -7 L 5.3125 -7 C 5.351562 -7 5.382812 -6.984375 5.40625 -6.953125 C 5.4375 -6.929688 5.453125 -6.894531 5.453125 -6.84375 Z M 5.453125 -6.3125 "/></g></g></g><g fill="#ff914d" fill-opacity="1"><g transform="translate(144.513714, 260.976487)"><g><path d="M 5.453125 -6.3125 C 5.453125 -6.269531 5.4375 -6.234375 5.40625 -6.203125 C 5.382812 -6.179688 5.351562 -6.171875 5.3125 -6.171875 L 1.828125 -6.171875 C 1.796875 -6.171875 1.78125 -6.15625 1.78125 -6.125 L 1.78125 -3.984375 C 1.78125 -3.953125 1.796875 -3.9375 1.828125 -3.9375 L 4.203125 -3.9375 C 4.242188 -3.9375 4.273438 -3.921875 4.296875 -3.890625 C 4.328125 -3.867188 4.34375 -3.835938 4.34375 -3.796875 L 4.34375 -3.265625 C 4.34375 -3.210938 4.328125 -3.171875 4.296875 -3.140625 C 4.273438 -3.117188 4.242188 -3.109375 4.203125 -3.109375 L 1.828125 -3.109375 C 1.796875 -3.109375 1.78125 -3.09375 1.78125 -3.0625 L 1.78125 -0.15625 C 1.78125 -0.101562 1.765625 -0.0625 1.734375 -0.03125 C 1.710938 -0.0078125 1.675781 0 1.625 0 L 0.96875 0 C 0.925781 0 0.890625 -0.0078125 0.859375 -0.03125 C 0.828125 -0.0625 0.8125 -0.101562 0.8125 -0.15625 L 0.8125 -6.84375 C 0.8125 -6.894531 0.828125 -6.929688 0.859375 -6.953125 C 0.890625 -6.984375 0.925781 -7 0.96875 -7 L 5.3125 -7 C 5.351562 -7 5.382812 -6.984375 5.40625 -6.953125 C 5.4375 -6.929688 5.453125 -6.894531 5.453125 -6.84375 Z M 5.453125 -6.3125 "/></g></g></g><g fill="#ff914d" fill-opacity="1"><g transform="translate(152.161497, 260.976487)"><g><path d="M 5.46875 -6.3125 C 5.46875 -6.269531 5.453125 -6.234375 5.421875 -6.203125 C 5.398438 -6.179688 5.363281 -6.171875 5.3125 -6.171875 L 1.828125 -6.171875 C 1.796875 -6.171875 1.78125 -6.15625 1.78125 -6.125 L 1.78125 -3.984375 C 1.78125 -3.953125 1.796875 -3.9375 1.828125 -3.9375 L 4.203125 -3.9375 C 4.253906 -3.9375 4.289062 -3.921875 4.3125 -3.890625 C 4.34375 -3.867188 4.359375 -3.835938 4.359375 -3.796875 L 4.359375 -3.265625 C 4.359375 -3.210938 4.34375 -3.171875 4.3125 -3.140625 C 4.289062 -3.117188 4.253906 -3.109375 4.203125 -3.109375 L 1.828125 -3.109375 C 1.796875 -3.109375 1.78125 -3.09375 1.78125 -3.0625 L 1.78125 -0.875 C 1.78125 -0.84375 1.796875 -0.828125 1.828125 -0.828125 L 5.3125 -0.828125 C 5.363281 -0.828125 5.398438 -0.8125 5.421875 -0.78125 C 5.453125 -0.757812 5.46875 -0.726562 5.46875 -0.6875 L 5.46875 -0.15625 C 5.46875 -0.101562 5.453125 -0.0625 5.421875 -0.03125 C 5.398438 -0.0078125 5.363281 0 5.3125 0 L 0.96875 0 C 0.925781 0 0.890625 -0.0078125 0.859375 -0.03125 C 0.828125 -0.0625 0.8125 -0.101562 0.8125 -0.15625 L 0.8125 -6.84375 C 0.8125 -6.894531 0.828125 -6.929688 0.859375 -6.953125 C 0.890625 -6.984375 0.925781 -7 0.96875 -7 L 5.3125 -7 C 5.363281 -7 5.398438 -6.984375 5.421875 -6.953125 C 5.453125 -6.929688 5.46875 -6.894531 5.46875 -6.84375 Z M 5.46875 -6.3125 "/></g></g></g><g fill="#ff914d" fill-opacity="1"><g transform="translate(160.139144, 260.976487)"><g><path d="M 5.46875 -6.3125 C 5.46875 -6.269531 5.453125 -6.234375 5.421875 -6.203125 C 5.398438 -6.179688 5.363281 -6.171875 5.3125 -6.171875 L 1.828125 -6.171875 C 1.796875 -6.171875 1.78125 -6.15625 1.78125 -6.125 L 1.78125 -3.984375 C 1.78125 -3.953125 1.796875 -3.9375 1.828125 -3.9375 L 4.203125 -3.9375 C 4.253906 -3.9375 4.289062 -3.921875 4.3125 -3.890625 C 4.34375 -3.867188 4.359375 -3.835938 4.359375 -3.796875 L 4.359375 -3.265625 C 4.359375 -3.210938 4.34375 -3.171875 4.3125 -3.140625 C 4.289062 -3.117188 4.253906 -3.109375 4.203125 -3.109375 L 1.828125 -3.109375 C 1.796875 -3.109375 1.78125 -3.09375 1.78125 -3.0625 L 1.78125 -0.875 C 1.78125 -0.84375 1.796875 -0.828125 1.828125 -0.828125 L 5.3125 -0.828125 C 5.363281 -0.828125 5.398438 -0.8125 5.421875 -0.78125 C 5.453125 -0.757812 5.46875 -0.726562 5.46875 -0.6875 L 5.46875 -0.15625 C 5.46875 -0.101562 5.453125 -0.0625 5.421875 -0.03125 C 5.398438 -0.0078125 5.363281 0 5.3125 0 L 0.96875 0 C 0.925781 0 0.890625 -0.0078125 0.859375 -0.03125 C 0.828125 -0.0625 0.8125 -0.101562 0.8125 -0.15625 L 0.8125 -6.84375 C 0.8125 -6.894531 0.828125 -6.929688 0.859375 -6.953125 C 0.890625 -6.984375 0.925781 -7 0.96875 -7 L 5.3125 -7 C 5.363281 -7 5.398438 -6.984375 5.421875 -6.953125 C 5.453125 -6.929688 5.46875 -6.894531 5.46875 -6.84375 Z M 5.46875 -6.3125 "/></g></g></g><g fill="#ff914d" fill-opacity="1"><g transform="translate(168.116791, 260.976487)"><g/></g></g><g fill="#ff914d" fill-opacity="1"><g transform="translate(172.116015, 260.976487)"><g><path d="M 6.125 -0.1875 C 6.15625 -0.132812 6.171875 -0.0976562 6.171875 -0.078125 C 6.171875 -0.0234375 6.128906 0 6.046875 0 L 5.296875 0 C 5.222656 0 5.164062 -0.0234375 5.125 -0.078125 L 4.625 -0.625 C 4.601562 -0.65625 4.582031 -0.660156 4.5625 -0.640625 C 4.238281 -0.390625 3.910156 -0.207031 3.578125 -0.09375 C 3.253906 0.0195312 2.910156 0.078125 2.546875 0.078125 C 1.941406 0.078125 1.445312 -0.0625 1.0625 -0.34375 C 0.6875 -0.625 0.5 -1.039062 0.5 -1.59375 C 0.5 -2.050781 0.625 -2.4375 0.875 -2.75 C 1.132812 -3.070312 1.488281 -3.375 1.9375 -3.65625 C 1.957031 -3.6875 1.957031 -3.710938 1.9375 -3.734375 C 1.5625 -4.179688 1.3125 -4.515625 1.1875 -4.734375 C 1.070312 -4.953125 1.015625 -5.175781 1.015625 -5.40625 C 1.015625 -5.90625 1.179688 -6.304688 1.515625 -6.609375 C 1.847656 -6.921875 2.285156 -7.078125 2.828125 -7.078125 C 3.378906 -7.078125 3.828125 -6.925781 4.171875 -6.625 C 4.523438 -6.332031 4.703125 -5.941406 4.703125 -5.453125 C 4.703125 -5.035156 4.582031 -4.679688 4.34375 -4.390625 C 4.101562 -4.109375 3.757812 -3.828125 3.3125 -3.546875 C 3.28125 -3.523438 3.273438 -3.503906 3.296875 -3.484375 L 4.578125 -2 L 4.625 -1.953125 C 4.644531 -1.929688 4.664062 -1.929688 4.6875 -1.953125 C 4.84375 -2.140625 5.046875 -2.40625 5.296875 -2.75 C 5.328125 -2.800781 5.367188 -2.828125 5.421875 -2.828125 C 5.441406 -2.828125 5.472656 -2.816406 5.515625 -2.796875 L 5.984375 -2.53125 C 6.035156 -2.5 6.0625 -2.457031 6.0625 -2.40625 C 6.0625 -2.382812 6.050781 -2.351562 6.03125 -2.3125 C 5.738281 -1.894531 5.472656 -1.550781 5.234375 -1.28125 L 5.234375 -1.265625 C 5.234375 -1.234375 5.242188 -1.207031 5.265625 -1.1875 Z M 2.84375 -6.203125 C 2.582031 -6.203125 2.375 -6.128906 2.21875 -5.984375 C 2.0625 -5.835938 1.984375 -5.644531 1.984375 -5.40625 C 1.984375 -5.269531 2.023438 -5.125 2.109375 -4.96875 C 2.203125 -4.8125 2.394531 -4.554688 2.6875 -4.203125 C 2.707031 -4.171875 2.734375 -4.164062 2.765625 -4.1875 C 3.085938 -4.40625 3.332031 -4.609375 3.5 -4.796875 C 3.664062 -4.984375 3.75 -5.195312 3.75 -5.4375 C 3.75 -5.664062 3.664062 -5.847656 3.5 -5.984375 C 3.332031 -6.128906 3.113281 -6.203125 2.84375 -6.203125 Z M 2.546875 -0.734375 C 3.023438 -0.734375 3.503906 -0.921875 3.984375 -1.296875 C 4.015625 -1.304688 4.015625 -1.328125 3.984375 -1.359375 L 3.703125 -1.6875 C 3.546875 -1.882812 3.410156 -2.039062 3.296875 -2.15625 C 3.054688 -2.414062 2.875 -2.625 2.75 -2.78125 L 2.546875 -3.015625 C 2.523438 -3.035156 2.503906 -3.035156 2.484375 -3.015625 C 2.148438 -2.785156 1.894531 -2.566406 1.71875 -2.359375 C 1.539062 -2.148438 1.453125 -1.90625 1.453125 -1.625 C 1.453125 -1.351562 1.550781 -1.132812 1.75 -0.96875 C 1.945312 -0.8125 2.210938 -0.734375 2.546875 -0.734375 Z M 2.546875 -0.734375 "/></g></g></g><g fill="#ff914d" fill-opacity="1"><g transform="translate(180.88335, 260.976487)"><g/></g></g><g fill="#ff914d" fill-opacity="1"><g transform="translate(184.882574, 260.976487)"><g><path d="M 0.984375 0 C 0.929688 0 0.890625 -0.0078125 0.859375 -0.03125 C 0.835938 -0.0625 0.828125 -0.101562 0.828125 -0.15625 L 0.828125 -6.84375 C 0.828125 -6.894531 0.835938 -6.929688 0.859375 -6.953125 C 0.890625 -6.984375 0.929688 -7 0.984375 -7 L 1.65625 -7 C 1.726562 -7 1.785156 -6.96875 1.828125 -6.90625 L 3.515625 -4.21875 C 3.535156 -4.175781 3.550781 -4.175781 3.5625 -4.21875 L 5.265625 -6.90625 C 5.296875 -6.96875 5.351562 -7 5.4375 -7 L 6.109375 -7 C 6.160156 -7 6.195312 -6.984375 6.21875 -6.953125 C 6.25 -6.929688 6.265625 -6.894531 6.265625 -6.84375 L 6.265625 -0.15625 C 6.265625 -0.101562 6.25 -0.0625 6.21875 -0.03125 C 6.195312 -0.0078125 6.160156 0 6.109375 0 L 5.453125 0 C 5.398438 0 5.359375 -0.0078125 5.328125 -0.03125 C 5.304688 -0.0625 5.296875 -0.101562 5.296875 -0.15625 L 5.296875 -5.234375 C 5.296875 -5.253906 5.289062 -5.265625 5.28125 -5.265625 C 5.269531 -5.273438 5.253906 -5.269531 5.234375 -5.25 L 3.875 -3.03125 C 3.832031 -2.96875 3.773438 -2.9375 3.703125 -2.9375 L 3.375 -2.9375 C 3.300781 -2.9375 3.242188 -2.96875 3.203125 -3.03125 L 1.84375 -5.25 C 1.832031 -5.269531 1.820312 -5.273438 1.8125 -5.265625 C 1.800781 -5.265625 1.796875 -5.253906 1.796875 -5.234375 L 1.796875 -0.15625 C 1.796875 -0.101562 1.78125 -0.0625 1.75 -0.03125 C 1.71875 -0.0078125 1.679688 0 1.640625 0 Z M 0.984375 0 "/></g></g></g><g fill="#ff914d" fill-opacity="1"><g transform="translate(193.959792, 260.976487)"><g><path d="M 5.109375 0 C 5.023438 0 4.96875 -0.0390625 4.9375 -0.125 L 4.59375 -1.234375 C 4.570312 -1.265625 4.554688 -1.28125 4.546875 -1.28125 L 1.75 -1.28125 C 1.726562 -1.28125 1.710938 -1.265625 1.703125 -1.234375 L 1.34375 -0.125 C 1.320312 -0.0390625 1.269531 0 1.1875 0 L 0.46875 0 C 0.351562 0 0.3125 -0.0546875 0.34375 -0.171875 L 2.515625 -6.875 C 2.535156 -6.957031 2.59375 -7 2.6875 -7 L 3.59375 -7 C 3.6875 -7 3.742188 -6.957031 3.765625 -6.875 L 5.953125 -0.171875 C 5.953125 -0.160156 5.953125 -0.140625 5.953125 -0.109375 C 5.953125 -0.0351562 5.910156 0 5.828125 0 Z M 1.953125 -2.09375 C 1.953125 -2.0625 1.96875 -2.046875 2 -2.046875 L 4.296875 -2.046875 C 4.328125 -2.046875 4.335938 -2.0625 4.328125 -2.09375 L 3.171875 -5.828125 C 3.160156 -5.859375 3.148438 -5.875 3.140625 -5.875 C 3.128906 -5.875 3.117188 -5.859375 3.109375 -5.828125 Z M 1.953125 -2.09375 "/></g></g></g><g fill="#ff914d" fill-opacity="1"><g transform="translate(202.257313, 260.976487)"><g><path d="M 2.984375 0.078125 C 2.484375 0.078125 2.046875 0 1.671875 -0.15625 C 1.296875 -0.320312 1.003906 -0.550781 0.796875 -0.84375 C 0.597656 -1.132812 0.5 -1.476562 0.5 -1.875 L 0.5 -2.109375 C 0.5 -2.160156 0.507812 -2.195312 0.53125 -2.21875 C 0.5625 -2.25 0.601562 -2.265625 0.65625 -2.265625 L 1.296875 -2.265625 C 1.335938 -2.265625 1.367188 -2.25 1.390625 -2.21875 C 1.421875 -2.195312 1.4375 -2.160156 1.4375 -2.109375 L 1.4375 -1.921875 C 1.4375 -1.578125 1.582031 -1.296875 1.875 -1.078125 C 2.164062 -0.859375 2.554688 -0.75 3.046875 -0.75 C 3.503906 -0.75 3.847656 -0.84375 4.078125 -1.03125 C 4.316406 -1.226562 4.4375 -1.484375 4.4375 -1.796875 C 4.4375 -2.003906 4.375 -2.179688 4.25 -2.328125 C 4.132812 -2.472656 3.960938 -2.609375 3.734375 -2.734375 C 3.503906 -2.859375 3.171875 -3.007812 2.734375 -3.1875 C 2.242188 -3.363281 1.859375 -3.53125 1.578125 -3.6875 C 1.296875 -3.84375 1.0625 -4.046875 0.875 -4.296875 C 0.6875 -4.546875 0.59375 -4.859375 0.59375 -5.234375 C 0.59375 -5.804688 0.796875 -6.253906 1.203125 -6.578125 C 1.609375 -6.910156 2.164062 -7.078125 2.875 -7.078125 C 3.363281 -7.078125 3.796875 -6.992188 4.171875 -6.828125 C 4.546875 -6.660156 4.832031 -6.425781 5.03125 -6.125 C 5.238281 -5.832031 5.34375 -5.488281 5.34375 -5.09375 L 5.34375 -4.9375 C 5.34375 -4.894531 5.328125 -4.859375 5.296875 -4.828125 C 5.273438 -4.804688 5.238281 -4.796875 5.1875 -4.796875 L 4.546875 -4.796875 C 4.492188 -4.796875 4.453125 -4.804688 4.421875 -4.828125 C 4.398438 -4.847656 4.390625 -4.878906 4.390625 -4.921875 L 4.390625 -5.046875 C 4.390625 -5.390625 4.25 -5.675781 3.96875 -5.90625 C 3.695312 -6.132812 3.316406 -6.25 2.828125 -6.25 C 2.410156 -6.25 2.085938 -6.160156 1.859375 -5.984375 C 1.640625 -5.816406 1.53125 -5.578125 1.53125 -5.265625 C 1.53125 -5.046875 1.585938 -4.863281 1.703125 -4.71875 C 1.816406 -4.582031 1.984375 -4.457031 2.203125 -4.34375 C 2.429688 -4.238281 2.773438 -4.097656 3.234375 -3.921875 C 3.703125 -3.734375 4.082031 -3.5625 4.375 -3.40625 C 4.664062 -3.25 4.910156 -3.039062 5.109375 -2.78125 C 5.304688 -2.53125 5.40625 -2.210938 5.40625 -1.828125 C 5.40625 -1.453125 5.304688 -1.117188 5.109375 -0.828125 C 4.910156 -0.546875 4.628906 -0.320312 4.265625 -0.15625 C 3.898438 0 3.472656 0.078125 2.984375 0.078125 Z M 2.984375 0.078125 "/></g></g></g><g fill="#ff914d" fill-opacity="1"><g transform="translate(210.135008, 260.976487)"><g><path d="M 3.0625 0.09375 C 2.582031 0.09375 2.15625 0 1.78125 -0.1875 C 1.414062 -0.382812 1.128906 -0.65625 0.921875 -1 C 0.722656 -1.351562 0.625 -1.753906 0.625 -2.203125 L 0.625 -4.796875 C 0.625 -5.253906 0.722656 -5.65625 0.921875 -6 C 1.128906 -6.34375 1.414062 -6.609375 1.78125 -6.796875 C 2.15625 -6.984375 2.582031 -7.078125 3.0625 -7.078125 C 3.550781 -7.078125 3.976562 -6.984375 4.34375 -6.796875 C 4.707031 -6.617188 4.988281 -6.363281 5.1875 -6.03125 C 5.394531 -5.695312 5.5 -5.3125 5.5 -4.875 C 5.5 -4.800781 5.445312 -4.757812 5.34375 -4.75 L 4.6875 -4.703125 L 4.65625 -4.703125 C 4.613281 -4.703125 4.582031 -4.707031 4.5625 -4.71875 C 4.550781 -4.738281 4.546875 -4.753906 4.546875 -4.765625 L 4.546875 -4.828125 C 4.546875 -5.253906 4.410156 -5.597656 4.140625 -5.859375 C 3.867188 -6.117188 3.507812 -6.25 3.0625 -6.25 C 2.625 -6.25 2.269531 -6.117188 2 -5.859375 C 1.726562 -5.597656 1.59375 -5.253906 1.59375 -4.828125 L 1.59375 -2.171875 C 1.59375 -1.742188 1.726562 -1.398438 2 -1.140625 C 2.269531 -0.878906 2.625 -0.75 3.0625 -0.75 C 3.507812 -0.75 3.867188 -0.878906 4.140625 -1.140625 C 4.410156 -1.398438 4.546875 -1.742188 4.546875 -2.171875 C 4.546875 -2.210938 4.554688 -2.242188 4.578125 -2.265625 C 4.609375 -2.285156 4.644531 -2.289062 4.6875 -2.28125 L 5.34375 -2.234375 C 5.445312 -2.222656 5.5 -2.207031 5.5 -2.1875 L 5.5 -2.140625 C 5.5 -1.703125 5.394531 -1.3125 5.1875 -0.96875 C 4.988281 -0.632812 4.707031 -0.375 4.34375 -0.1875 C 3.976562 0 3.550781 0.09375 3.0625 0.09375 Z M 3.0625 0.09375 "/></g></g></g><g fill="#ff914d" fill-opacity="1"><g transform="translate(218.202623, 260.976487)"><g><path d="M 4.703125 -6.84375 C 4.703125 -6.894531 4.71875 -6.929688 4.75 -6.953125 C 4.78125 -6.984375 4.816406 -7 4.859375 -7 L 5.515625 -7 C 5.566406 -7 5.601562 -6.984375 5.625 -6.953125 C 5.65625 -6.929688 5.671875 -6.894531 5.671875 -6.84375 L 5.671875 -0.15625 C 5.671875 -0.101562 5.65625 -0.0625 5.625 -0.03125 C 5.601562 -0.0078125 5.566406 0 5.515625 0 L 4.859375 0 C 4.816406 0 4.78125 -0.0078125 4.75 -0.03125 C 4.71875 -0.0625 4.703125 -0.101562 4.703125 -0.15625 L 4.703125 -3.0625 C 4.703125 -3.09375 4.6875 -3.109375 4.65625 -3.109375 L 1.828125 -3.109375 C 1.796875 -3.109375 1.78125 -3.09375 1.78125 -3.0625 L 1.78125 -0.15625 C 1.78125 -0.101562 1.765625 -0.0625 1.734375 -0.03125 C 1.710938 -0.0078125 1.675781 0 1.625 0 L 0.96875 0 C 0.925781 0 0.890625 -0.0078125 0.859375 -0.03125 C 0.828125 -0.0625 0.8125 -0.101562 0.8125 -0.15625 L 0.8125 -6.84375 C 0.8125 -6.894531 0.828125 -6.929688 0.859375 -6.953125 C 0.890625 -6.984375 0.925781 -7 0.96875 -7 L 1.625 -7 C 1.675781 -7 1.710938 -6.984375 1.734375 -6.953125 C 1.765625 -6.929688 1.78125 -6.894531 1.78125 -6.84375 L 1.78125 -3.984375 C 1.78125 -3.953125 1.796875 -3.9375 1.828125 -3.9375 L 4.65625 -3.9375 C 4.6875 -3.9375 4.703125 -3.953125 4.703125 -3.984375 Z M 4.703125 -6.84375 "/></g></g></g><g fill="#ff914d" fill-opacity="1"><g transform="translate(226.650078, 260.976487)"><g><path d="M 0.96875 0 C 0.925781 0 0.890625 -0.0078125 0.859375 -0.03125 C 0.828125 -0.0625 0.8125 -0.101562 0.8125 -0.15625 L 0.8125 -6.84375 C 0.8125 -6.894531 0.828125 -6.929688 0.859375 -6.953125 C 0.890625 -6.984375 0.925781 -7 0.96875 -7 L 1.625 -7 C 1.675781 -7 1.710938 -6.984375 1.734375 -6.953125 C 1.765625 -6.929688 1.78125 -6.894531 1.78125 -6.84375 L 1.78125 -0.15625 C 1.78125 -0.101562 1.765625 -0.0625 1.734375 -0.03125 C 1.710938 -0.0078125 1.675781 0 1.625 0 Z M 0.96875 0 "/></g></g></g><g fill="#ff914d" fill-opacity="1"><g transform="translate(231.249069, 260.976487)"><g><path d="M 0.96875 0 C 0.925781 0 0.890625 -0.0078125 0.859375 -0.03125 C 0.828125 -0.0625 0.8125 -0.101562 0.8125 -0.15625 L 0.8125 -6.84375 C 0.8125 -6.894531 0.828125 -6.929688 0.859375 -6.953125 C 0.890625 -6.984375 0.925781 -7 0.96875 -7 L 1.609375 -7 C 1.691406 -7 1.753906 -6.96875 1.796875 -6.90625 L 4.84375 -1.953125 C 4.863281 -1.929688 4.878906 -1.921875 4.890625 -1.921875 C 4.898438 -1.929688 4.90625 -1.945312 4.90625 -1.96875 L 4.90625 -6.84375 C 4.90625 -6.894531 4.914062 -6.929688 4.9375 -6.953125 C 4.96875 -6.984375 5.007812 -7 5.0625 -7 L 5.71875 -7 C 5.769531 -7 5.804688 -6.984375 5.828125 -6.953125 C 5.859375 -6.929688 5.875 -6.894531 5.875 -6.84375 L 5.875 -0.15625 C 5.875 -0.101562 5.859375 -0.0625 5.828125 -0.03125 C 5.804688 -0.0078125 5.769531 0 5.71875 0 L 5.0625 0 C 4.988281 0 4.929688 -0.03125 4.890625 -0.09375 L 1.828125 -5.078125 C 1.816406 -5.097656 1.800781 -5.101562 1.78125 -5.09375 C 1.769531 -5.09375 1.765625 -5.082031 1.765625 -5.0625 L 1.78125 -0.15625 C 1.78125 -0.101562 1.765625 -0.0625 1.734375 -0.03125 C 1.710938 -0.0078125 1.675781 0 1.625 0 Z M 0.96875 0 "/></g></g></g><g fill="#ff914d" fill-opacity="1"><g transform="translate(239.926437, 260.976487)"><g><path d="M 5.46875 -6.3125 C 5.46875 -6.269531 5.453125 -6.234375 5.421875 -6.203125 C 5.398438 -6.179688 5.363281 -6.171875 5.3125 -6.171875 L 1.828125 -6.171875 C 1.796875 -6.171875 1.78125 -6.15625 1.78125 -6.125 L 1.78125 -3.984375 C 1.78125 -3.953125 1.796875 -3.9375 1.828125 -3.9375 L 4.203125 -3.9375 C 4.253906 -3.9375 4.289062 -3.921875 4.3125 -3.890625 C 4.34375 -3.867188 4.359375 -3.835938 4.359375 -3.796875 L 4.359375 -3.265625 C 4.359375 -3.210938 4.34375 -3.171875 4.3125 -3.140625 C 4.289062 -3.117188 4.253906 -3.109375 4.203125 -3.109375 L 1.828125 -3.109375 C 1.796875 -3.109375 1.78125 -3.09375 1.78125 -3.0625 L 1.78125 -0.875 C 1.78125 -0.84375 1.796875 -0.828125 1.828125 -0.828125 L 5.3125 -0.828125 C 5.363281 -0.828125 5.398438 -0.8125 5.421875 -0.78125 C 5.453125 -0.757812 5.46875 -0.726562 5.46875 -0.6875 L 5.46875 -0.15625 C 5.46875 -0.101562 5.453125 -0.0625 5.421875 -0.03125 C 5.398438 -0.0078125 5.363281 0 5.3125 0 L 0.96875 0 C 0.925781 0 0.890625 -0.0078125 0.859375 -0.03125 C 0.828125 -0.0625 0.8125 -0.101562 0.8125 -0.15625 L 0.8125 -6.84375 C 0.8125 -6.894531 0.828125 -6.929688 0.859375 -6.953125 C 0.890625 -6.984375 0.925781 -7 0.96875 -7 L 5.3125 -7 C 5.363281 -7 5.398438 -6.984375 5.421875 -6.953125 C 5.453125 -6.929688 5.46875 -6.894531 5.46875 -6.84375 Z M 5.46875 -6.3125 "/></g></g></g><g fill="#ff914d" fill-opacity="1"><g transform="translate(247.90409, 260.976487)"><g><path d="M 0.96875 0 C 0.925781 0 0.890625 -0.0078125 0.859375 -0.03125 C 0.828125 -0.0625 0.8125 -0.101562 0.8125 -0.15625 L 0.8125 -6.84375 C 0.8125 -6.894531 0.828125 -6.929688 0.859375 -6.953125 C 0.890625 -6.984375 0.925781 -7 0.96875 -7 L 1.609375 -7 C 1.691406 -7 1.753906 -6.96875 1.796875 -6.90625 L 4.84375 -1.953125 C 4.863281 -1.929688 4.878906 -1.921875 4.890625 -1.921875 C 4.898438 -1.929688 4.90625 -1.945312 4.90625 -1.96875 L 4.90625 -6.84375 C 4.90625 -6.894531 4.914062 -6.929688 4.9375 -6.953125 C 4.96875 -6.984375 5.007812 -7 5.0625 -7 L 5.71875 -7 C 5.769531 -7 5.804688 -6.984375 5.828125 -6.953125 C 5.859375 -6.929688 5.875 -6.894531 5.875 -6.84375 L 5.875 -0.15625 C 5.875 -0.101562 5.859375 -0.0625 5.828125 -0.03125 C 5.804688 -0.0078125 5.769531 0 5.71875 0 L 5.0625 0 C 4.988281 0 4.929688 -0.03125 4.890625 -0.09375 L 1.828125 -5.078125 C 1.816406 -5.097656 1.800781 -5.101562 1.78125 -5.09375 C 1.769531 -5.09375 1.765625 -5.082031 1.765625 -5.0625 L 1.78125 -0.15625 C 1.78125 -0.101562 1.765625 -0.0625 1.734375 -0.03125 C 1.710938 -0.0078125 1.675781 0 1.625 0 Z M 0.96875 0 "/></g></g></g><g fill="#ff914d" fill-opacity="1"><g transform="translate(171.586605, 271.476486)"><g><path d="M 3.0625 0.078125 C 2.582031 0.078125 2.15625 -0.015625 1.78125 -0.203125 C 1.414062 -0.390625 1.128906 -0.660156 0.921875 -1.015625 C 0.722656 -1.367188 0.625 -1.769531 0.625 -2.21875 L 0.625 -4.78125 C 0.625 -5.238281 0.722656 -5.640625 0.921875 -5.984375 C 1.128906 -6.335938 1.414062 -6.609375 1.78125 -6.796875 C 2.15625 -6.984375 2.582031 -7.078125 3.0625 -7.078125 C 3.550781 -7.078125 3.976562 -6.984375 4.34375 -6.796875 C 4.707031 -6.609375 4.988281 -6.347656 5.1875 -6.015625 C 5.394531 -5.691406 5.5 -5.320312 5.5 -4.90625 L 5.5 -4.84375 C 5.5 -4.800781 5.484375 -4.765625 5.453125 -4.734375 C 5.429688 -4.710938 5.394531 -4.703125 5.34375 -4.703125 L 4.6875 -4.703125 C 4.644531 -4.703125 4.609375 -4.710938 4.578125 -4.734375 C 4.554688 -4.753906 4.546875 -4.773438 4.546875 -4.796875 L 4.546875 -4.890625 C 4.546875 -5.285156 4.410156 -5.609375 4.140625 -5.859375 C 3.867188 -6.109375 3.507812 -6.234375 3.0625 -6.234375 C 2.625 -6.234375 2.269531 -6.101562 2 -5.84375 C 1.726562 -5.582031 1.59375 -5.238281 1.59375 -4.8125 L 1.59375 -2.1875 C 1.59375 -1.757812 1.734375 -1.414062 2.015625 -1.15625 C 2.296875 -0.894531 2.660156 -0.765625 3.109375 -0.765625 C 3.546875 -0.765625 3.894531 -0.878906 4.15625 -1.109375 C 4.414062 -1.335938 4.546875 -1.648438 4.546875 -2.046875 L 4.546875 -2.8125 C 4.546875 -2.84375 4.523438 -2.859375 4.484375 -2.859375 L 3.203125 -2.859375 C 3.148438 -2.859375 3.109375 -2.867188 3.078125 -2.890625 C 3.054688 -2.921875 3.046875 -2.960938 3.046875 -3.015625 L 3.046875 -3.53125 C 3.046875 -3.570312 3.054688 -3.609375 3.078125 -3.640625 C 3.109375 -3.671875 3.148438 -3.6875 3.203125 -3.6875 L 5.34375 -3.6875 C 5.394531 -3.6875 5.429688 -3.671875 5.453125 -3.640625 C 5.484375 -3.609375 5.5 -3.570312 5.5 -3.53125 L 5.5 -2.3125 C 5.5 -1.539062 5.28125 -0.945312 4.84375 -0.53125 C 4.40625 -0.125 3.8125 0.078125 3.0625 0.078125 Z M 3.0625 0.078125 "/></g></g></g><g fill="#ff914d" fill-opacity="1"><g transform="translate(179.644224, 271.476486)"><g><path d="M 0.984375 0 C 0.929688 0 0.890625 -0.0078125 0.859375 -0.03125 C 0.835938 -0.0625 0.828125 -0.101562 0.828125 -0.15625 L 0.828125 -6.84375 C 0.828125 -6.894531 0.835938 -6.929688 0.859375 -6.953125 C 0.890625 -6.984375 0.929688 -7 0.984375 -7 L 1.65625 -7 C 1.726562 -7 1.785156 -6.96875 1.828125 -6.90625 L 3.515625 -4.21875 C 3.535156 -4.175781 3.550781 -4.175781 3.5625 -4.21875 L 5.265625 -6.90625 C 5.296875 -6.96875 5.351562 -7 5.4375 -7 L 6.109375 -7 C 6.160156 -7 6.195312 -6.984375 6.21875 -6.953125 C 6.25 -6.929688 6.265625 -6.894531 6.265625 -6.84375 L 6.265625 -0.15625 C 6.265625 -0.101562 6.25 -0.0625 6.21875 -0.03125 C 6.195312 -0.0078125 6.160156 0 6.109375 0 L 5.453125 0 C 5.398438 0 5.359375 -0.0078125 5.328125 -0.03125 C 5.304688 -0.0625 5.296875 -0.101562 5.296875 -0.15625 L 5.296875 -5.234375 C 5.296875 -5.253906 5.289062 -5.265625 5.28125 -5.265625 C 5.269531 -5.273438 5.253906 -5.269531 5.234375 -5.25 L 3.875 -3.03125 C 3.832031 -2.96875 3.773438 -2.9375 3.703125 -2.9375 L 3.375 -2.9375 C 3.300781 -2.9375 3.242188 -2.96875 3.203125 -3.03125 L 1.84375 -5.25 C 1.832031 -5.269531 1.820312 -5.273438 1.8125 -5.265625 C 1.800781 -5.265625 1.796875 -5.253906 1.796875 -5.234375 L 1.796875 -0.15625 C 1.796875 -0.101562 1.78125 -0.0625 1.75 -0.03125 C 1.71875 -0.0078125 1.679688 0 1.640625 0 Z M 0.984375 0 "/></g></g></g><g fill="#ff914d" fill-opacity="1"><g transform="translate(188.721442, 271.476486)"><g><path d="M 4.5625 -3.65625 C 4.53125 -3.632812 4.53125 -3.613281 4.5625 -3.59375 C 5.257812 -3.28125 5.609375 -2.722656 5.609375 -1.921875 C 5.609375 -1.304688 5.40625 -0.832031 5 -0.5 C 4.59375 -0.164062 4.0625 0 3.40625 0 L 0.96875 0 C 0.925781 0 0.890625 -0.0078125 0.859375 -0.03125 C 0.828125 -0.0625 0.8125 -0.101562 0.8125 -0.15625 L 0.8125 -6.84375 C 0.8125 -6.894531 0.828125 -6.929688 0.859375 -6.953125 C 0.890625 -6.984375 0.925781 -7 0.96875 -7 L 3.328125 -7 C 4.023438 -7 4.5625 -6.835938 4.9375 -6.515625 C 5.320312 -6.203125 5.515625 -5.742188 5.515625 -5.140625 C 5.515625 -4.421875 5.195312 -3.925781 4.5625 -3.65625 Z M 1.828125 -6.171875 C 1.796875 -6.171875 1.78125 -6.15625 1.78125 -6.125 L 1.78125 -4.03125 C 1.78125 -4 1.796875 -3.984375 1.828125 -3.984375 L 3.328125 -3.984375 C 3.710938 -3.984375 4.015625 -4.078125 4.234375 -4.265625 C 4.460938 -4.460938 4.578125 -4.726562 4.578125 -5.0625 C 4.578125 -5.394531 4.460938 -5.660156 4.234375 -5.859375 C 4.015625 -6.066406 3.710938 -6.171875 3.328125 -6.171875 Z M 3.40625 -0.84375 C 3.789062 -0.84375 4.09375 -0.945312 4.3125 -1.15625 C 4.539062 -1.363281 4.65625 -1.648438 4.65625 -2.015625 C 4.65625 -2.367188 4.539062 -2.648438 4.3125 -2.859375 C 4.082031 -3.078125 3.769531 -3.1875 3.375 -3.1875 L 1.828125 -3.1875 C 1.796875 -3.1875 1.78125 -3.164062 1.78125 -3.125 L 1.78125 -0.890625 C 1.78125 -0.859375 1.796875 -0.84375 1.828125 -0.84375 Z M 3.40625 -0.84375 "/></g></g></g><g fill="#ff914d" fill-opacity="1"><g transform="translate(196.958996, 271.476486)"><g><path d="M 4.703125 -6.84375 C 4.703125 -6.894531 4.71875 -6.929688 4.75 -6.953125 C 4.78125 -6.984375 4.816406 -7 4.859375 -7 L 5.515625 -7 C 5.566406 -7 5.601562 -6.984375 5.625 -6.953125 C 5.65625 -6.929688 5.671875 -6.894531 5.671875 -6.84375 L 5.671875 -0.15625 C 5.671875 -0.101562 5.65625 -0.0625 5.625 -0.03125 C 5.601562 -0.0078125 5.566406 0 5.515625 0 L 4.859375 0 C 4.816406 0 4.78125 -0.0078125 4.75 -0.03125 C 4.71875 -0.0625 4.703125 -0.101562 4.703125 -0.15625 L 4.703125 -3.0625 C 4.703125 -3.09375 4.6875 -3.109375 4.65625 -3.109375 L 1.828125 -3.109375 C 1.796875 -3.109375 1.78125 -3.09375 1.78125 -3.0625 L 1.78125 -0.15625 C 1.78125 -0.101562 1.765625 -0.0625 1.734375 -0.03125 C 1.710938 -0.0078125 1.675781 0 1.625 0 L 0.96875 0 C 0.925781 0 0.890625 -0.0078125 0.859375 -0.03125 C 0.828125 -0.0625 0.8125 -0.101562 0.8125 -0.15625 L 0.8125 -6.84375 C 0.8125 -6.894531 0.828125 -6.929688 0.859375 -6.953125 C 0.890625 -6.984375 0.925781 -7 0.96875 -7 L 1.625 -7 C 1.675781 -7 1.710938 -6.984375 1.734375 -6.953125 C 1.765625 -6.929688 1.78125 -6.894531 1.78125 -6.84375 L 1.78125 -3.984375 C 1.78125 -3.953125 1.796875 -3.9375 1.828125 -3.9375 L 4.65625 -3.9375 C 4.6875 -3.9375 4.703125 -3.953125 4.703125 -3.984375 Z M 4.703125 -6.84375 "/></g></g></g></svg>